<svg width="212" height="52" viewBox="0 0 212 52" fill="none" xmlns="http://www.w3.org/2000/svg">
<path d="M5.375 22.8125V43.8125H0.75V3.9375L3.75 1.1875C4.70833 1.0625 5.66667 0.958333 6.625 0.875C7.625 0.791667 8.60417 0.75 9.5625 0.75C11.8125 0.75 14 0.979167 16.125 1.4375C18.25 1.85417 20.1458 2.54167 21.8125 3.5C23.4792 4.41667 24.8125 5.60417 25.8125 7.0625C26.8542 8.52083 27.375 10.2917 27.375 12.375C27.375 14.25 27.0417 15.8333 26.375 17.125C25.7083 18.4167 24.8125 19.5 23.6875 20.375C22.5625 21.2083 21.2917 21.8542 19.875 22.3125C18.4583 22.7292 17 23.0208 15.5 23.1875L25.375 38.9375L22.125 41.1875L11.125 23.4375C10.125 23.4375 9.14583 23.4167 8.1875 23.375C7.22917 23.3333 6.29167 23.1458 5.375 22.8125ZM5.625 19.0625C7.25 19.5208 9.125 19.75 11.25 19.75C12.625 19.75 14.0208 19.6458 15.4375 19.4375C16.8542 19.1875 18.125 18.7917 19.25 18.25C20.4167 17.6667 21.3542 16.8958 22.0625 15.9375C22.7708 14.9792 23.125 13.7917 23.125 12.375C23.125 11.1667 22.8125 10.0833 22.1875 9.125C21.5625 8.16667 20.6875 7.375 19.5625 6.75C18.4792 6.08333 17.1875 5.58333 15.6875 5.25C14.2292 4.875 12.6458 4.6875 10.9375 4.6875C10.1458 4.6875 9.35417 4.72917 8.5625 4.8125C7.77083 4.89583 6.95833 5.02083 6.125 5.1875C5.91667 7.39583 5.77083 9.72917 5.6875 12.1875C5.64583 14.6458 5.625 16.9375 5.625 19.0625ZM34.95 27.1875C34.95 24.8958 35.2833 22.9792 35.95 21.4375C36.6167 19.8542 37.45 18.6042 38.45 17.6875C39.4917 16.7292 40.6375 16.0625 41.8875 15.6875C43.1375 15.2708 44.3458 15.0625 45.5125 15.0625C47.1792 15.0625 48.6792 15.3125 50.0125 15.8125C51.3458 16.2708 52.4708 17.0625 53.3875 18.1875C54.3458 19.2708 55.075 20.7292 55.575 22.5625C56.075 24.3958 56.325 26.6458 56.325 29.3125L38.95 31C39.075 32.1667 39.3875 33.1667 39.8875 34C40.4292 34.7917 41.0958 35.4375 41.8875 35.9375C42.6792 36.4375 43.5333 36.7917 44.45 37C45.3667 37.2083 46.3042 37.3125 47.2625 37.3125C48.8458 37.3125 50.3667 37.0833 51.825 36.625C53.2833 36.1667 54.3667 35.6042 55.075 34.9375L56.2 37.9375C55.9083 38.3542 55.4708 38.7708 54.8875 39.1875C54.3042 39.6042 53.6167 39.9583 52.825 40.25C52.0333 40.5833 51.1375 40.8333 50.1375 41C49.1792 41.2083 48.1792 41.3125 47.1375 41.3125C45.6792 41.3125 44.2208 41.0833 42.7625 40.625C41.3042 40.1667 39.9917 39.3958 38.825 38.3125C37.6583 37.2292 36.7208 35.7917 36.0125 34C35.3042 32.1667 34.95 29.8958 34.95 27.1875ZM38.575 27.3125L52.325 25.8125C52.325 23.7708 51.7833 22.1458 50.7 20.9375C49.6167 19.6875 47.8667 19.0625 45.45 19.0625C44.2833 19.1042 43.2625 19.3542 42.3875 19.8125C41.5542 20.2708 40.8458 20.8542 40.2625 21.5625C39.6792 22.2292 39.2417 23 38.95 23.875C38.6583 24.75 38.5125 25.6458 38.5125 26.5625C38.5125 26.8958 38.5333 27.1458 38.575 27.3125Z" fill="#FFFDDE"/>
<path d="M73.9 10.1875L70.65 14.5625L65.65 9.3125L69.025 5.1875L73.9 10.1875ZM73.9 34.4375L69.025 38.8125L65.65 33.5625L69.025 29.4375L73.9 34.4375Z" fill="#C0DEFF"/>
<path d="M105.35 25.1875V26.5C105.35 28.875 104.996 30.8542 104.287 32.4375C103.579 34.0208 102.683 35.2917 101.6 36.25C100.558 37.1667 99.3917 37.8125 98.1 38.1875C96.8083 38.5625 95.5792 38.75 94.4125 38.75C93.0792 38.75 91.8292 38.5833 90.6625 38.25C89.5375 37.9167 88.6833 37.5208 88.1 37.0625L88.6 51.0625L84.725 51.4375V17.4375L85.1 14.5625C88.1833 13.8542 90.85 13.5 93.1 13.5C96.975 13.5 99.9333 14.4792 101.975 16.4375C104.058 18.3542 105.183 21.2708 105.35 25.1875ZM87.475 18.9375L87.725 31.3125C87.7667 31.5208 87.975 31.7708 88.35 32.0625C88.7667 32.3542 89.2875 32.6458 89.9125 32.9375C90.5792 33.1875 91.3083 33.4167 92.1 33.625C92.8917 33.7917 93.7042 33.875 94.5375 33.875C95.3292 33.875 96.1208 33.75 96.9125 33.5C97.7458 33.2083 98.475 32.7292 99.1 32.0625C99.7667 31.3958 100.308 30.5 100.725 29.375C101.142 28.25 101.35 26.8542 101.35 25.1875C101.35 23.8958 101.1 22.7708 100.6 21.8125C100.142 20.8125 99.4958 20 98.6625 19.375C97.8708 18.7083 96.9542 18.2292 95.9125 17.9375C94.9125 17.6042 93.8708 17.4375 92.7875 17.4375C91.8292 17.4375 90.8917 17.5625 89.975 17.8125C89.0583 18.0625 88.225 18.4375 87.475 18.9375ZM134.425 21.5625L138.425 38.5625L134.675 39.9375L132.425 29.3125C132.133 30.4792 131.675 31.6875 131.05 32.9375C130.467 34.1875 129.717 35.3333 128.8 36.375C127.925 37.375 126.863 38.2083 125.613 38.875C124.404 39.5 123.029 39.8125 121.488 39.8125C118.738 39.8125 116.633 38.9375 115.175 37.1875C113.758 35.3958 113.05 32.9375 113.05 29.8125C113.05 28.0208 113.321 26.1667 113.863 24.25C114.404 22.2917 115.217 20.5208 116.3 18.9375C117.383 17.3542 118.738 16.0417 120.363 15C122.029 13.9583 123.967 13.4375 126.175 13.4375C127.467 13.4375 128.592 13.7292 129.55 14.3125C130.55 14.8542 131.383 15.5417 132.05 16.375C132.717 17.2083 133.238 18.1042 133.613 19.0625C133.988 19.9792 134.258 20.8125 134.425 21.5625ZM126.8 17.9375C126.508 17.8542 126.217 17.7917 125.925 17.75C125.675 17.7083 125.404 17.6875 125.113 17.6875C123.821 17.6875 122.654 18.0833 121.613 18.875C120.613 19.625 119.758 20.5833 119.05 21.75C118.383 22.9167 117.863 24.1875 117.488 25.5625C117.154 26.9375 116.988 28.2083 116.988 29.375C116.988 31.2083 117.383 32.6875 118.175 33.8125C118.967 34.9375 120.217 35.5 121.925 35.5C123.092 35.5 124.175 35.125 125.175 34.375C126.175 33.5833 127.029 32.6042 127.738 31.4375C128.446 30.2708 128.988 29 129.363 27.625C129.779 26.2083 129.988 24.8958 129.988 23.6875C129.988 22.3542 129.717 21.1875 129.175 20.1875C128.675 19.1458 127.883 18.3958 126.8 17.9375ZM147.875 40.1875V17.3125H152.25V40.4375L147.875 40.1875ZM153.625 12.1875L149.25 13.4375L145.25 3.9375L149.625 2.8125L153.625 12.1875ZM177.95 19.6875H165.825V39.6875L162.7 40.0625V13.1875L165.7 12.5625V15.6875L180.2 14.8125L182.075 18.5625L183.95 38.9375L179.95 40.0625L177.95 19.6875ZM195.65 38.6875V19.75H189.275L189.65 15.1875H196.525V2.4375H200.775V15.4375H211.025V19.9375H200.337V36.1875L209.775 34.4375L210.4 38.6875L197.9 41.3125L195.65 38.6875Z" fill="#E7FBBE"/>
</svg>
