<svg width="390" height="844" viewBox="0 0 390 844" fill="none" xmlns="http://www.w3.org/2000/svg">
<g clip-path="url(#clip0_274_200)">
<rect width="390" height="844" fill="#F8F8F8"/>
<path d="M368 64C368 63.6934 367.987 63.4 367.96 63.0934L370.44 61.2134C370.973 60.8134 371.12 60.0667 370.787 59.48L368.293 55.1734C368.134 54.8909 367.875 54.6775 367.567 54.5742C367.26 54.4708 366.925 54.4848 366.627 54.6134L363.76 55.8267C363.267 55.48 362.747 55.1734 362.2 54.92L361.813 51.84C361.733 51.1734 361.16 50.6667 360.493 50.6667H355.52C354.84 50.6667 354.267 51.1734 354.187 51.84L353.8 54.92C353.253 55.1734 352.733 55.48 352.24 55.8267L349.373 54.6134C348.76 54.3467 348.04 54.5867 347.707 55.1734L345.213 59.4934C344.88 60.08 345.027 60.8134 345.56 61.2267L348.04 63.1067C347.985 63.7054 347.985 64.308 348.04 64.9067L345.56 66.7867C345.027 67.1867 344.88 67.9334 345.213 68.52L347.707 72.8267C348.04 73.4134 348.76 73.6534 349.373 73.3867L352.24 72.1734C352.733 72.52 353.253 72.8267 353.8 73.08L354.187 76.16C354.267 76.8267 354.84 77.3334 355.507 77.3334H360.48C361.147 77.3334 361.72 76.8267 361.8 76.16L362.187 73.08C362.733 72.8267 363.253 72.52 363.747 72.1734L366.613 73.3867C367.227 73.6534 367.947 73.4134 368.28 72.8267L370.773 68.52C371.107 67.9334 370.96 67.2 370.427 66.7867L367.947 64.9067C367.987 64.6 368 64.3067 368 64ZM358.053 68.6667C355.48 68.6667 353.387 66.5734 353.387 64C353.387 61.4267 355.48 59.3334 358.053 59.3334C360.627 59.3334 362.72 61.4267 362.72 64C362.72 66.5734 360.627 68.6667 358.053 68.6667Z" fill="black"/>
<rect width="358" height="358" transform="translate(15 128)" fill="#EFEFEF"/>
<g filter="url(#filter0_d_274_200)">
<rect x="31" y="831" width="328" height="41" rx="8" fill="white"/>
<rect x="31.5" y="831.5" width="327" height="40" rx="7.5" stroke="#429CFF"/>
</g>
<g filter="url(#filter1_d_274_200)">
<rect x="31" y="594" width="328" height="48" rx="8" fill="#D6D6D6"/>
<path d="M149.71 612.216C150.06 612.72 150.564 613.574 150.844 614.134L150.088 614.47C149.808 613.91 149.332 613.07 148.954 612.538L149.71 612.216ZM151.236 611.656C151.614 612.174 152.146 613.042 152.412 613.56L151.656 613.896C151.348 613.294 150.9 612.496 150.508 611.978L151.236 611.656ZM144.362 617.424C146.154 618.46 148.464 620.07 149.836 621.204L149.024 622.17C147.722 620.994 145.342 619.272 143.606 618.194L144.362 617.424ZM150.76 614.862C150.648 615.058 150.522 615.394 150.438 615.618C150.018 617.046 149.136 618.894 147.904 620.42C146.644 621.974 144.81 623.472 142.15 624.452L141.156 623.584C143.76 622.786 145.664 621.302 146.924 619.804C148.016 618.516 148.898 616.738 149.22 615.436H144.026L144.474 614.442H148.926C149.304 614.442 149.612 614.386 149.836 614.302L150.76 614.862ZM146.042 612.846C145.804 613.21 145.566 613.686 145.426 613.938C144.586 615.478 143.004 617.606 140.778 619.146L139.84 618.418C142.234 616.92 143.676 614.82 144.32 613.546C144.46 613.294 144.698 612.79 144.782 612.44L146.042 612.846ZM160.56 612.3C160.504 612.734 160.49 613.056 160.49 613.35C160.49 613.672 160.49 614.722 160.49 615.212H159.3C159.3 614.666 159.3 613.672 159.3 613.35C159.3 613.056 159.286 612.734 159.23 612.3H160.56ZM165.334 615.016C165.264 615.212 165.18 615.59 165.138 615.856C164.942 616.976 164.536 618.726 163.752 620.056C162.716 621.89 160.784 623.318 158.222 624.018L157.312 622.982C157.774 622.898 158.306 622.758 158.754 622.59C160.168 622.128 161.694 621.092 162.562 619.762C163.318 618.572 163.752 616.878 163.878 615.688H156.066C156.066 616.262 156.066 617.76 156.066 618.194C156.066 618.432 156.08 618.81 156.108 619.02H154.89C154.932 618.782 154.946 618.404 154.946 618.124C154.946 617.676 154.946 616.15 154.946 615.66C154.946 615.366 154.946 614.89 154.89 614.596C155.296 614.624 155.716 614.652 156.206 614.652H163.626C164.144 614.652 164.396 614.596 164.578 614.54L165.334 615.016ZM170.178 613.252C171.158 613.91 172.964 615.366 173.734 616.136L172.866 617.032C172.152 616.304 170.416 614.792 169.366 614.106L170.178 613.252ZM168.974 622.632C171.41 622.268 173.23 621.414 174.56 620.588C176.73 619.23 178.424 617.158 179.236 615.422L179.908 616.626C178.956 618.362 177.332 620.266 175.218 621.596C173.804 622.478 172.04 623.346 169.702 623.78L168.974 622.632ZM183.044 613.91C183.59 613.938 183.954 613.938 184.29 613.938C185.032 613.938 191.122 613.938 191.808 613.938C192.102 613.938 192.606 613.938 193.04 613.924C193.012 614.26 193.012 614.652 193.012 615.002C193.012 615.66 193.012 621.372 193.012 621.904C193.012 622.352 193.026 623.444 193.04 623.598H191.822C191.836 623.444 191.85 622.646 191.85 622.058C191.85 621.54 191.85 615.044 191.85 615.044H184.206C184.206 615.044 184.206 621.484 184.206 622.058C184.206 622.52 184.22 623.416 184.22 623.598H183.03C183.03 623.416 183.058 622.394 183.058 621.904C183.058 621.33 183.058 615.548 183.058 615.002C183.058 614.68 183.058 614.26 183.044 613.91ZM192.312 621.708V622.8H183.646V621.708H192.312ZM196.414 617.438C196.848 617.48 197.576 617.522 198.374 617.522C199.396 617.522 205.01 617.522 206.046 617.522C206.746 617.522 207.236 617.466 207.558 617.438V618.81C207.264 618.796 206.676 618.754 206.06 618.754C204.996 618.754 199.41 618.754 198.374 618.754C197.604 618.754 196.862 618.782 196.414 618.81V617.438ZM218.184 613.434C218.534 613.938 219.136 614.876 219.458 615.548L218.66 615.912C218.31 615.17 217.862 614.4 217.4 613.77L218.184 613.434ZM219.864 612.734C220.242 613.224 220.858 614.148 221.18 614.806L220.396 615.198C220.032 614.456 219.57 613.714 219.108 613.098L219.864 612.734ZM213.27 622.45C213.27 621.68 213.27 615.492 213.27 614.316C213.27 613.91 213.228 613.294 213.158 612.86H214.53C214.488 613.28 214.432 613.896 214.432 614.316C214.432 616.5 214.446 621.792 214.446 622.45C214.446 622.898 214.474 623.654 214.53 624.116H213.172C213.242 623.668 213.27 622.982 213.27 622.45ZM214.18 616.528C216.042 617.06 218.856 618.138 220.41 618.908L219.92 620.084C218.324 619.23 215.706 618.236 214.18 617.76V616.528Z" fill="black"/>
<path fill-rule="evenodd" clip-rule="evenodd" d="M243.67 619.13C245.04 620.06 246 621.32 246 623V626H250V623C250 620.82 246.43 619.53 243.67 619.13Z" fill="black"/>
<path d="M236 618C238.209 618 240 616.209 240 614C240 611.791 238.209 610 236 610C233.791 610 232 611.791 232 614C232 616.209 233.791 618 236 618Z" fill="black"/>
<path fill-rule="evenodd" clip-rule="evenodd" d="M242 618C244.21 618 246 616.21 246 614C246 611.79 244.21 610 242 610C241.53 610 241.09 610.1 240.67 610.24C241.531 611.304 242 612.631 242 614C242 615.369 241.531 616.696 240.67 617.76C241.09 617.9 241.53 618 242 618ZM236 619C233.33 619 228 620.34 228 623V626H244V623C244 620.34 238.67 619 236 619Z" fill="black"/>
</g>
<rect x="16" y="542" width="358" height="20" rx="8" fill="#999999"/>
<rect x="16" y="542" width="130" height="20" rx="8" fill="#ADA2FF"/>
<g filter="url(#filter2_d_274_200)">
<g clip-path="url(#clip1_274_200)">
<rect x="31" y="674" width="144" height="141" rx="8" fill="white"/>
<path d="M73 718.667H99.6667V692H73V718.667ZM79.6667 698.667H93V712H79.6667V698.667ZM73 752H99.6667V725.333H73V752ZM79.6667 732H93V745.333H79.6667V732ZM106.333 692V718.667H133V692H106.333ZM126.333 712H113V698.667H126.333V712ZM126.333 745.333H133V752H126.333V745.333ZM106.333 725.333H113V732H106.333V725.333ZM113 732H119.667V738.667H113V732ZM106.333 738.667H113V745.333H106.333V738.667ZM113 745.333H119.667V752H113V745.333ZM119.667 738.667H126.333V745.333H119.667V738.667ZM119.667 725.333H126.333V732H119.667V725.333ZM126.333 732H133V738.667H126.333V732Z" fill="black"/>
<g filter="url(#filter3_d_274_200)">
<rect x="31" y="774" width="144" height="41" fill="#C0DEFF"/>
<path d="M55.9318 796.818H57.2841L58.4176 798.31L58.7159 798.707L60.4062 800.955H59.054L57.9403 799.463L57.6619 799.085L55.9318 796.818ZM60.8239 794.909C60.8239 795.983 60.63 796.911 60.2422 797.693C59.8544 798.475 59.3224 799.079 58.6463 799.503C57.9702 799.927 57.1979 800.139 56.3295 800.139C55.4612 800.139 54.6889 799.927 54.0128 799.503C53.3366 799.079 52.8047 798.475 52.4169 797.693C52.0291 796.911 51.8352 795.983 51.8352 794.909C51.8352 793.835 52.0291 792.907 52.4169 792.125C52.8047 791.343 53.3366 790.74 54.0128 790.315C54.6889 789.891 55.4612 789.679 56.3295 789.679C57.1979 789.679 57.9702 789.891 58.6463 790.315C59.3224 790.74 59.8544 791.343 60.2422 792.125C60.63 792.907 60.8239 793.835 60.8239 794.909ZM59.6307 794.909C59.6307 794.027 59.4832 793.283 59.1882 792.677C58.8965 792.07 58.5005 791.611 58 791.3C57.5028 790.988 56.946 790.832 56.3295 790.832C55.7131 790.832 55.1546 790.988 54.6541 791.3C54.157 791.611 53.7609 792.07 53.4659 792.677C53.1742 793.283 53.0284 794.027 53.0284 794.909C53.0284 795.791 53.1742 796.535 53.4659 797.141C53.7609 797.748 54.157 798.207 54.6541 798.518C55.1546 798.83 55.7131 798.986 56.3295 798.986C56.946 798.986 57.5028 798.83 58 798.518C58.5005 798.207 58.8965 797.748 59.1882 797.141C59.4832 796.535 59.6307 795.791 59.6307 794.909ZM62.897 800V789.818H66.3374C67.1328 789.818 67.7857 789.954 68.2962 790.226C68.8066 790.494 69.1844 790.864 69.4297 791.335C69.675 791.805 69.7976 792.34 69.7976 792.94C69.7976 793.54 69.675 794.072 69.4297 794.536C69.1844 795 68.8082 795.365 68.3011 795.63C67.794 795.892 67.1461 796.023 66.3572 796.023H63.5732V794.909H66.3175C66.861 794.909 67.2985 794.83 67.63 794.67C67.9647 794.511 68.2067 794.286 68.3558 793.994C68.5083 793.699 68.5845 793.348 68.5845 792.94C68.5845 792.533 68.5083 792.176 68.3558 791.871C68.2034 791.567 67.9598 791.331 67.625 791.165C67.2902 790.996 66.8478 790.912 66.2976 790.912H64.13V800H62.897ZM67.6896 795.426L70.1953 800H68.7635L66.2976 795.426H67.6896ZM73.0131 790.41C73.4891 790.452 74.0911 790.494 74.5531 790.494H81.4411C81.7911 790.494 82.1971 790.48 82.4771 790.466C82.4631 790.774 82.4491 791.222 82.4491 791.544V798.782C82.4491 799.286 82.4911 799.916 82.5051 800.126H81.2451C81.2451 799.916 81.2731 799.398 81.2731 798.894V791.6H74.5531C74.0351 791.6 73.3491 791.628 73.0131 791.656V790.41ZM72.8451 798.138C73.1951 798.166 73.8111 798.208 74.3851 798.208H81.9031V799.356H74.4271C73.8531 799.356 73.2231 799.37 72.8451 799.412V798.138ZM86.0331 793.938C86.4671 793.98 87.1951 794.022 87.9931 794.022C89.0151 794.022 94.6291 794.022 95.6651 794.022C96.3651 794.022 96.8551 793.966 97.1771 793.938V795.31C96.8831 795.296 96.2951 795.254 95.6791 795.254C94.6151 795.254 89.0291 795.254 87.9931 795.254C87.2231 795.254 86.4811 795.282 86.0331 795.31V793.938ZM107.803 789.934C108.153 790.438 108.755 791.376 109.077 792.048L108.279 792.412C107.929 791.67 107.481 790.9 107.019 790.27L107.803 789.934ZM109.483 789.234C109.861 789.724 110.477 790.648 110.799 791.306L110.015 791.698C109.651 790.956 109.189 790.214 108.727 789.598L109.483 789.234ZM102.889 798.95C102.889 798.18 102.889 791.992 102.889 790.816C102.889 790.41 102.847 789.794 102.777 789.36H104.149C104.107 789.78 104.051 790.396 104.051 790.816C104.051 793 104.065 798.292 104.065 798.95C104.065 799.398 104.093 800.154 104.149 800.616H102.791C102.861 800.168 102.889 799.482 102.889 798.95ZM103.799 793.028C105.661 793.56 108.475 794.638 110.029 795.408L109.539 796.584C107.943 795.73 105.325 794.736 103.799 794.26V793.028ZM119.059 788.94C118.933 789.486 118.779 790.256 118.415 791.194C118.065 792.048 117.547 792.986 116.987 793.714C117.533 793.392 118.331 793.196 118.947 793.196C120.025 793.196 120.865 793.84 120.865 794.974C120.865 795.702 120.893 797.312 120.907 798.18H119.829C119.885 797.438 119.899 795.996 119.885 795.268C119.871 794.456 119.311 794.078 118.583 794.078C117.687 794.078 116.805 794.526 116.161 795.1C115.755 795.492 115.363 795.996 114.901 796.57L113.935 795.856C115.951 793.924 116.889 792.3 117.365 791.11C117.673 790.34 117.869 789.5 117.911 788.842L119.059 788.94ZM114.257 790.452C115.013 790.55 115.979 790.592 116.623 790.592C118.513 790.592 120.935 790.48 122.909 790.13V791.166C120.949 791.46 118.345 791.586 116.567 791.586C115.965 791.586 115.041 791.558 114.257 791.502V790.452ZM124.953 793.826C124.603 793.938 124.099 794.134 123.721 794.274C122.727 794.666 121.397 795.198 120.039 795.898C118.653 796.626 117.673 797.382 117.673 798.348C117.673 799.44 118.751 799.608 120.193 799.608C121.285 799.608 122.797 799.482 124.029 799.258L123.987 800.392C122.923 800.518 121.369 800.63 120.151 800.63C118.163 800.63 116.553 800.196 116.553 798.502C116.553 796.794 118.289 795.744 119.955 794.89C121.285 794.204 122.419 793.77 123.343 793.336C123.763 793.14 124.113 792.986 124.505 792.79L124.953 793.826ZM128.005 789.416H139.247V790.326H128.005V789.416ZM128.649 791.474H138.701V792.356H128.649V791.474ZM127.487 793.616H139.723V794.54H127.487V793.616ZM133.045 788.24H134.109V794.33H133.045V788.24ZM133.003 793.924L133.913 794.358C132.457 795.954 129.867 797.424 127.697 798.138C127.529 797.872 127.235 797.48 127.011 797.27C129.167 796.654 131.701 795.31 133.003 793.924ZM134.529 794.064C135.369 797.06 137.189 799.272 140.157 800.154C139.919 800.364 139.625 800.798 139.471 801.078C136.377 800.014 134.543 797.648 133.577 794.26L134.529 794.064ZM138.519 795.002L139.359 795.66C138.365 796.458 137.035 797.312 136.027 797.872L135.383 797.298C136.363 796.71 137.721 795.744 138.519 795.002ZM128.565 800.154C130.175 799.804 132.695 799.174 135.089 798.586L135.187 799.524C132.975 800.098 130.581 800.7 128.901 801.12L128.565 800.154ZM130.539 796.528L131.295 795.772L131.589 795.856V800.084H130.539V796.528ZM147.059 793.238H148.193V799.762C148.193 800.434 148.025 800.756 147.535 800.938C147.031 801.092 146.205 801.106 144.973 801.106C144.917 800.798 144.749 800.336 144.581 800.014C145.533 800.042 146.457 800.042 146.723 800.028C146.989 800.028 147.059 799.958 147.059 799.734V793.238ZM143.881 795.1L144.973 795.38C144.287 797.102 143.181 798.782 142.061 799.86C141.851 799.664 141.375 799.37 141.095 799.216C142.243 798.222 143.279 796.682 143.881 795.1ZM150.181 795.52L151.147 795.114C152.183 796.43 153.275 798.208 153.681 799.398L152.631 799.86C152.253 798.698 151.203 796.864 150.181 795.52ZM142.705 789.29H152.547V790.326H142.705V789.29ZM141.445 792.678H153.793V793.728H141.445V792.678Z" fill="black"/>
<rect x="31.5" y="774.5" width="143" height="40" stroke="#429CFF"/>
</g>
</g>
<rect x="31.5" y="674.5" width="143" height="140" rx="7.5" stroke="#429CFF"/>
</g>
<g filter="url(#filter4_d_274_200)">
<g clip-path="url(#clip2_274_200)">
<rect x="215" y="674" width="144" height="141" rx="8" fill="white"/>
<path d="M278.667 703.667V713.667H268.667V703.667H278.667ZM283.667 698.667H263.667V718.667H283.667V698.667ZM278.667 730.333V740.333H268.667V730.333H278.667ZM283.667 725.333H263.667V745.333H283.667V725.333ZM305.333 703.667V713.667H295.333V703.667H305.333ZM310.333 698.667H290.333V718.667H310.333V698.667ZM290.333 725.333H295.333V730.333H290.333V725.333ZM295.333 730.333H300.333V735.333H295.333V730.333ZM300.333 725.333H305.333V730.333H300.333V725.333ZM290.333 735.333H295.333V740.333H290.333V735.333ZM295.333 740.333H300.333V745.333H295.333V740.333ZM300.333 735.333H305.333V740.333H300.333V735.333ZM305.333 730.333H310.333V735.333H305.333V730.333ZM305.333 740.333H310.333V745.333H305.333V740.333ZM320.333 705.333H313.667V695.333H303.667V688.667H320.333V705.333ZM320.333 755.333V738.667H313.667V748.667H303.667V755.333H320.333ZM253.667 755.333H270.333V748.667H260.333V738.667H253.667V755.333ZM253.667 688.667V705.333H260.333V695.333H270.333V688.667H253.667Z" fill="black"/>
<g filter="url(#filter5_d_274_200)">
<rect x="215" y="774" width="144" height="41" fill="#C0DEFF"/>
<path d="M239.932 796.818H241.284L242.418 798.31L242.716 798.707L244.406 800.955H243.054L241.94 799.463L241.662 799.085L239.932 796.818ZM244.824 794.909C244.824 795.983 244.63 796.911 244.242 797.693C243.854 798.475 243.322 799.079 242.646 799.503C241.97 799.927 241.198 800.139 240.33 800.139C239.461 800.139 238.689 799.927 238.013 799.503C237.337 799.079 236.805 798.475 236.417 797.693C236.029 796.911 235.835 795.983 235.835 794.909C235.835 793.835 236.029 792.907 236.417 792.125C236.805 791.343 237.337 790.74 238.013 790.315C238.689 789.891 239.461 789.679 240.33 789.679C241.198 789.679 241.97 789.891 242.646 790.315C243.322 790.74 243.854 791.343 244.242 792.125C244.63 792.907 244.824 793.835 244.824 794.909ZM243.631 794.909C243.631 794.027 243.483 793.283 243.188 792.677C242.897 792.07 242.5 791.611 242 791.3C241.503 790.988 240.946 790.832 240.33 790.832C239.713 790.832 239.155 790.988 238.654 791.3C238.157 791.611 237.761 792.07 237.466 792.677C237.174 793.283 237.028 794.027 237.028 794.909C237.028 795.791 237.174 796.535 237.466 797.141C237.761 797.748 238.157 798.207 238.654 798.518C239.155 798.83 239.713 798.986 240.33 798.986C240.946 798.986 241.503 798.83 242 798.518C242.5 798.207 242.897 797.748 243.188 797.141C243.483 796.535 243.631 795.791 243.631 794.909ZM246.897 800V789.818H250.337C251.133 789.818 251.786 789.954 252.296 790.226C252.807 790.494 253.184 790.864 253.43 791.335C253.675 791.805 253.798 792.34 253.798 792.94C253.798 793.54 253.675 794.072 253.43 794.536C253.184 795 252.808 795.365 252.301 795.63C251.794 795.892 251.146 796.023 250.357 796.023H247.573V794.909H250.317C250.861 794.909 251.299 794.83 251.63 794.67C251.965 794.511 252.207 794.286 252.356 793.994C252.508 793.699 252.585 793.348 252.585 792.94C252.585 792.533 252.508 792.176 252.356 791.871C252.203 791.567 251.96 791.331 251.625 791.165C251.29 790.996 250.848 790.912 250.298 790.912H248.13V800H246.897ZM251.69 795.426L254.195 800H252.763L250.298 795.426H251.69ZM257.013 790.41C257.489 790.452 258.091 790.494 258.553 790.494H265.441C265.791 790.494 266.197 790.48 266.477 790.466C266.463 790.774 266.449 791.222 266.449 791.544V798.782C266.449 799.286 266.491 799.916 266.505 800.126H265.245C265.245 799.916 265.273 799.398 265.273 798.894V791.6H258.553C258.035 791.6 257.349 791.628 257.013 791.656V790.41ZM256.845 798.138C257.195 798.166 257.811 798.208 258.385 798.208H265.903V799.356H258.427C257.853 799.356 257.223 799.37 256.845 799.412V798.138ZM270.033 793.938C270.467 793.98 271.195 794.022 271.993 794.022C273.015 794.022 278.629 794.022 279.665 794.022C280.365 794.022 280.855 793.966 281.177 793.938V795.31C280.883 795.296 280.295 795.254 279.679 795.254C278.615 795.254 273.029 795.254 271.993 795.254C271.223 795.254 270.481 795.282 270.033 795.31V793.938ZM291.803 789.934C292.153 790.438 292.755 791.376 293.077 792.048L292.279 792.412C291.929 791.67 291.481 790.9 291.019 790.27L291.803 789.934ZM293.483 789.234C293.861 789.724 294.477 790.648 294.799 791.306L294.015 791.698C293.651 790.956 293.189 790.214 292.727 789.598L293.483 789.234ZM286.889 798.95C286.889 798.18 286.889 791.992 286.889 790.816C286.889 790.41 286.847 789.794 286.777 789.36H288.149C288.107 789.78 288.051 790.396 288.051 790.816C288.051 793 288.065 798.292 288.065 798.95C288.065 799.398 288.093 800.154 288.149 800.616H286.791C286.861 800.168 286.889 799.482 286.889 798.95ZM287.799 793.028C289.661 793.56 292.475 794.638 294.029 795.408L293.539 796.584C291.943 795.73 289.325 794.736 287.799 794.26V793.028ZM303.059 788.94C302.933 789.486 302.779 790.256 302.415 791.194C302.065 792.048 301.547 792.986 300.987 793.714C301.533 793.392 302.331 793.196 302.947 793.196C304.025 793.196 304.865 793.84 304.865 794.974C304.865 795.702 304.893 797.312 304.907 798.18H303.829C303.885 797.438 303.899 795.996 303.885 795.268C303.871 794.456 303.311 794.078 302.583 794.078C301.687 794.078 300.805 794.526 300.161 795.1C299.755 795.492 299.363 795.996 298.901 796.57L297.935 795.856C299.951 793.924 300.889 792.3 301.365 791.11C301.673 790.34 301.869 789.5 301.911 788.842L303.059 788.94ZM298.257 790.452C299.013 790.55 299.979 790.592 300.623 790.592C302.513 790.592 304.935 790.48 306.909 790.13V791.166C304.949 791.46 302.345 791.586 300.567 791.586C299.965 791.586 299.041 791.558 298.257 791.502V790.452ZM308.953 793.826C308.603 793.938 308.099 794.134 307.721 794.274C306.727 794.666 305.397 795.198 304.039 795.898C302.653 796.626 301.673 797.382 301.673 798.348C301.673 799.44 302.751 799.608 304.193 799.608C305.285 799.608 306.797 799.482 308.029 799.258L307.987 800.392C306.923 800.518 305.369 800.63 304.151 800.63C302.163 800.63 300.553 800.196 300.553 798.502C300.553 796.794 302.289 795.744 303.955 794.89C305.285 794.204 306.419 793.77 307.343 793.336C307.763 793.14 308.113 792.986 308.505 792.79L308.953 793.826ZM312.005 789.416H323.247V790.326H312.005V789.416ZM312.649 791.474H322.701V792.356H312.649V791.474ZM311.487 793.616H323.723V794.54H311.487V793.616ZM317.045 788.24H318.109V794.33H317.045V788.24ZM317.003 793.924L317.913 794.358C316.457 795.954 313.867 797.424 311.697 798.138C311.529 797.872 311.235 797.48 311.011 797.27C313.167 796.654 315.701 795.31 317.003 793.924ZM318.529 794.064C319.369 797.06 321.189 799.272 324.157 800.154C323.919 800.364 323.625 800.798 323.471 801.078C320.377 800.014 318.543 797.648 317.577 794.26L318.529 794.064ZM322.519 795.002L323.359 795.66C322.365 796.458 321.035 797.312 320.027 797.872L319.383 797.298C320.363 796.71 321.721 795.744 322.519 795.002ZM312.565 800.154C314.175 799.804 316.695 799.174 319.089 798.586L319.187 799.524C316.975 800.098 314.581 800.7 312.901 801.12L312.565 800.154ZM314.539 796.528L315.295 795.772L315.589 795.856V800.084H314.539V796.528ZM331.059 793.238H332.193V799.762C332.193 800.434 332.025 800.756 331.535 800.938C331.031 801.092 330.205 801.106 328.973 801.106C328.917 800.798 328.749 800.336 328.581 800.014C329.533 800.042 330.457 800.042 330.723 800.028C330.989 800.028 331.059 799.958 331.059 799.734V793.238ZM327.881 795.1L328.973 795.38C328.287 797.102 327.181 798.782 326.061 799.86C325.851 799.664 325.375 799.37 325.095 799.216C326.243 798.222 327.279 796.682 327.881 795.1ZM334.181 795.52L335.147 795.114C336.183 796.43 337.275 798.208 337.681 799.398L336.631 799.86C336.253 798.698 335.203 796.864 334.181 795.52ZM326.705 789.29H336.547V790.326H326.705V789.29ZM325.445 792.678H337.793V793.728H325.445V792.678Z" fill="black"/>
<rect x="215.5" y="774.5" width="143" height="40" stroke="#429CFF"/>
</g>
</g>
<rect x="215.5" y="674.5" width="143" height="140" rx="7.5" stroke="#429CFF"/>
</g>
<circle cx="255" cy="514" r="8" fill="#D6D6D6"/>
<circle cx="215" cy="514" r="8" fill="#D6D6D6"/>
<circle cx="135" cy="514" r="8" fill="#C0DEFF"/>
<circle cx="175" cy="514" r="8" fill="#D6D6D6"/>
</g>
<defs>
<filter id="filter0_d_274_200" x="27" y="828" width="336" height="49" filterUnits="userSpaceOnUse" color-interpolation-filters="sRGB">
<feFlood flood-opacity="0" result="BackgroundImageFix"/>
<feColorMatrix in="SourceAlpha" type="matrix" values="0 0 0 0 0 0 0 0 0 0 0 0 0 0 0 0 0 0 127 0" result="hardAlpha"/>
<feOffset dy="1"/>
<feGaussianBlur stdDeviation="2"/>
<feComposite in2="hardAlpha" operator="out"/>
<feColorMatrix type="matrix" values="0 0 0 0 0 0 0 0 0 0 0 0 0 0 0 0 0 0 0.25 0"/>
<feBlend mode="normal" in2="BackgroundImageFix" result="effect1_dropShadow_274_200"/>
<feBlend mode="normal" in="SourceGraphic" in2="effect1_dropShadow_274_200" result="shape"/>
</filter>
<filter id="filter1_d_274_200" x="27" y="591" width="336" height="56" filterUnits="userSpaceOnUse" color-interpolation-filters="sRGB">
<feFlood flood-opacity="0" result="BackgroundImageFix"/>
<feColorMatrix in="SourceAlpha" type="matrix" values="0 0 0 0 0 0 0 0 0 0 0 0 0 0 0 0 0 0 127 0" result="hardAlpha"/>
<feOffset dy="1"/>
<feGaussianBlur stdDeviation="2"/>
<feComposite in2="hardAlpha" operator="out"/>
<feColorMatrix type="matrix" values="0 0 0 0 0 0 0 0 0 0 0 0 0 0 0 0 0 0 0.25 0"/>
<feBlend mode="normal" in2="BackgroundImageFix" result="effect1_dropShadow_274_200"/>
<feBlend mode="normal" in="SourceGraphic" in2="effect1_dropShadow_274_200" result="shape"/>
</filter>
<filter id="filter2_d_274_200" x="27" y="671" width="152" height="149" filterUnits="userSpaceOnUse" color-interpolation-filters="sRGB">
<feFlood flood-opacity="0" result="BackgroundImageFix"/>
<feColorMatrix in="SourceAlpha" type="matrix" values="0 0 0 0 0 0 0 0 0 0 0 0 0 0 0 0 0 0 127 0" result="hardAlpha"/>
<feOffset dy="1"/>
<feGaussianBlur stdDeviation="2"/>
<feComposite in2="hardAlpha" operator="out"/>
<feColorMatrix type="matrix" values="0 0 0 0 0 0 0 0 0 0 0 0 0 0 0 0 0 0 0.25 0"/>
<feBlend mode="normal" in2="BackgroundImageFix" result="effect1_dropShadow_274_200"/>
<feBlend mode="normal" in="SourceGraphic" in2="effect1_dropShadow_274_200" result="shape"/>
</filter>
<filter id="filter3_d_274_200" x="27" y="771" width="152" height="49" filterUnits="userSpaceOnUse" color-interpolation-filters="sRGB">
<feFlood flood-opacity="0" result="BackgroundImageFix"/>
<feColorMatrix in="SourceAlpha" type="matrix" values="0 0 0 0 0 0 0 0 0 0 0 0 0 0 0 0 0 0 127 0" result="hardAlpha"/>
<feOffset dy="1"/>
<feGaussianBlur stdDeviation="2"/>
<feComposite in2="hardAlpha" operator="out"/>
<feColorMatrix type="matrix" values="0 0 0 0 0 0 0 0 0 0 0 0 0 0 0 0 0 0 0.25 0"/>
<feBlend mode="normal" in2="BackgroundImageFix" result="effect1_dropShadow_274_200"/>
<feBlend mode="normal" in="SourceGraphic" in2="effect1_dropShadow_274_200" result="shape"/>
</filter>
<filter id="filter4_d_274_200" x="211" y="671" width="152" height="149" filterUnits="userSpaceOnUse" color-interpolation-filters="sRGB">
<feFlood flood-opacity="0" result="BackgroundImageFix"/>
<feColorMatrix in="SourceAlpha" type="matrix" values="0 0 0 0 0 0 0 0 0 0 0 0 0 0 0 0 0 0 127 0" result="hardAlpha"/>
<feOffset dy="1"/>
<feGaussianBlur stdDeviation="2"/>
<feComposite in2="hardAlpha" operator="out"/>
<feColorMatrix type="matrix" values="0 0 0 0 0 0 0 0 0 0 0 0 0 0 0 0 0 0 0.25 0"/>
<feBlend mode="normal" in2="BackgroundImageFix" result="effect1_dropShadow_274_200"/>
<feBlend mode="normal" in="SourceGraphic" in2="effect1_dropShadow_274_200" result="shape"/>
</filter>
<filter id="filter5_d_274_200" x="211" y="771" width="152" height="49" filterUnits="userSpaceOnUse" color-interpolation-filters="sRGB">
<feFlood flood-opacity="0" result="BackgroundImageFix"/>
<feColorMatrix in="SourceAlpha" type="matrix" values="0 0 0 0 0 0 0 0 0 0 0 0 0 0 0 0 0 0 127 0" result="hardAlpha"/>
<feOffset dy="1"/>
<feGaussianBlur stdDeviation="2"/>
<feComposite in2="hardAlpha" operator="out"/>
<feColorMatrix type="matrix" values="0 0 0 0 0 0 0 0 0 0 0 0 0 0 0 0 0 0 0.25 0"/>
<feBlend mode="normal" in2="BackgroundImageFix" result="effect1_dropShadow_274_200"/>
<feBlend mode="normal" in="SourceGraphic" in2="effect1_dropShadow_274_200" result="shape"/>
</filter>
<clipPath id="clip0_274_200">
<rect width="390" height="844" fill="white"/>
</clipPath>
<clipPath id="clip1_274_200">
<rect x="31" y="674" width="144" height="141" rx="8" fill="white"/>
</clipPath>
<clipPath id="clip2_274_200">
<rect x="215" y="674" width="144" height="141" rx="8" fill="white"/>
</clipPath>
</defs>
</svg>
